<?xml version="1.0" encoding="utf-8"?>
<!-- Generator: Adobe Illustrator 25.2.1, SVG Export Plug-In . SVG Version: 6.00 Build 0)  -->
<svg version="1.1" id="Layer_1" focusable="false" xmlns="http://www.w3.org/2000/svg" xmlns:xlink="http://www.w3.org/1999/xlink"
	 x="0px" y="0px" viewBox="0 0 576 512" style="enable-background:new 0 0 576 512;" xml:space="preserve">
<g>
	
		<image style="overflow:visible;opacity:0.75;" width="566" height="456" xlink:href="FC2C3D707E4F32B4.png"  transform="matrix(1 0 0 1 14 37)">
	</image>
	<g>
		<path d="M199.7,257.9c0,10.6-8.4,18.7-19.1,18.7c-8,0-13.9-4.5-13.9-13c0-10.6,8.2-19.1,18.8-19.1
			C193.6,244.5,199.7,249.4,199.7,257.9z M107.9,215.8h-4.1c-1.3,0-2.6,0.9-2.8,2.3l-3.7,23.2l7.1-0.3c9.5,0,16.9-1.3,18.7-12.3
			C125.1,217.1,117.7,215.8,107.9,215.8z M354.4,215.8h-3.9c-1.6,0-2.6,0.9-2.8,2.3l-3.6,23.2l6.9-0.3c11.3,0,19.1-2.6,19.1-15.6
			C370,216.2,361.8,215.8,354.4,215.8L354.4,215.8z M538,103.2v305.6c0,23-18.7,41.7-41.7,41.7H79.7c-23,0-41.7-18.7-41.7-41.7
			V103.2c0-23,18.7-41.7,41.7-41.7h416.7C519.3,61.6,538,80.2,538,103.2z M149.4,220.8c0-18.2-14.1-24.3-30.1-24.3H84.5
			c-2.2,0-4.3,1.7-4.5,4.1l-14.2,88.6c-0.3,1.7,1,3.5,2.8,3.5H85c2.3,0,4.5-2.5,4.8-4.9l3.9-23.1c0.9-6.3,11.5-4.1,15.6-4.1
			C134.2,260.5,149.4,245.8,149.4,220.8L149.4,220.8z M222.5,228.4H206c-3.3,0-3.5,4.8-3.6,7.1c-5-7.4-12.3-8.7-20.6-8.7
			c-21.3,0-37.5,18.7-37.5,39.2c0,16.9,10.6,28,27.5,28c7.8,0,17.5-4.3,23-10.3c-0.4,1.3-0.9,4.1-0.9,5.4c0,2,0.9,3.5,2.8,3.5h14.9
			c2.3,0,4.3-2.5,4.8-4.9l8.9-55.8C225.5,230.1,224.2,228.4,222.5,228.4L222.5,228.4z M257.6,313.4l55.3-80.4
			c0.4-0.4,0.4-0.9,0.4-1.5c0-1.5-1.3-3-2.8-3h-16.7c-1.5,0-3,0.9-3.9,2.2l-23,33.9l-9.5-32.6c-0.7-1.9-2.6-3.5-4.8-3.5h-16.2
			c-1.5,0-2.8,1.6-2.8,3c0,1,16.9,49.3,18.4,53.9c-2.3,3.3-17.8,24.8-17.8,27.4c0,1.6,1.3,2.8,2.8,2.8h16.7
			C255.3,315.5,256.8,314.7,257.6,313.4L257.6,313.4z M395.9,220.8c0-18.2-14.1-24.3-30.1-24.3h-34.5c-2.3,0-4.5,1.7-4.8,4.1
			l-14.1,88.5c-0.2,1.7,1.1,3.5,2.8,3.5h17.8c1.7,0,3-1.3,3.5-2.8l3.9-25.2c0.9-6.3,11.5-4.1,15.6-4.1
			C380.7,260.5,395.9,245.8,395.9,220.8L395.9,220.8z M469,228.4h-16.5c-3.3,0-3.5,4.8-3.7,7.1c-4.8-7.4-12.2-8.7-20.6-8.7
			c-21.3,0-37.5,18.7-37.5,39.2c0,16.9,10.6,28,27.5,28c8.1,0,17.8-4.3,23-10.3c-0.3,1.3-0.9,4.1-0.9,5.4c0,2,0.9,3.5,2.8,3.5h15
			c2.3,0,4.3-2.5,4.8-4.9l8.9-55.8C472,230.1,470.7,228.4,469,228.4L469,228.4z M510.2,199.5c0-1.7-1.3-3-2.8-3h-16.1
			c-1.3,0-2.6,1-2.8,2.3l-14.1,90.3l-0.3,0.4c0,1.6,1.3,3,3,3h14.3c2.2,0,4.3-2.5,4.5-4.9l14.1-87.8V199.5L510.2,199.5z
			 M432.1,244.5c-10.6,0-18.8,8.4-18.8,19.1c0,8.4,6.1,13,14.1,13c10.4,0,18.8-8,18.8-18.7C446.2,249.4,440.2,244.5,432.1,244.5z"/>
	</g>
</g>
</svg>
